<svg xmlns:xlink="http://www.w3.org/1999/xlink" _ngcontent-iiw-c4="" viewBox="0 0 24 24" xmlns="http://www.w3.org/2000/svg" width="36"  height="36" ><path _ngcontent-iiw-c4="" d="M21.23 0H2.769A2.77 2.77 0 0 0 0 2.769v18.459A2.77 2.77 0 0 0 2.769 24h18.463C22.762 24 24 22.76 24 21.229V2.769A2.768 2.768 0 0 0 21.23 0zM12 7.385a4.615 4.615 0 1 1 .002 9.23A4.615 4.615 0 0 1 12 7.385zm9 12.693a.923.923 0 0 1-.924.922H3.924A.923.923 0 0 1 3 20.078V10h1.897a7.56 7.56 0 0 0-.2.971c-.05.337-.081.679-.081 1.029a7.384 7.384 0 1 0 14.768 0c0-.35-.03-.692-.081-1.028a7.557 7.557 0 0 0-.199-.971H21v10.077zm0-13.98a.924.924 0 0 1-.924.923h-2.174a.923.923 0 0 1-.924-.923V3.923c0-.51.412-.923.924-.923h2.174c.511 0 .924.413.924.923v2.175z" fill="#FFFFFF"></path></svg>